<?xml version="1.0" encoding="UTF-8"?>
<svg xmlns="http://www.w3.org/2000/svg"
     width="945.10736" height="887.10468"
     viewBox="-16 -16 977.10736 919.10468"
     fill="none">

  <!-- ===== STYLE ===== -->
  <g stroke="white" stroke-width="50" stroke-linecap="round" stroke-linejoin="round">

    <!-- ===== OUTER SHAPE ===== -->
    <line x1="42.5" y1="0" x2="402.5" y2="239.75" />
    <line x1="402.5" y1="239.75" x2="542.5" y2="239.75" />
    <line x1="542.5" y1="239.75" x2="902.5" y2="0" />
    <line x1="902.5" y1="0" x2="875" y2="450" />
    <line x1="875" y1="450" x2="945" y2="600" />
    <line x1="945" y1="600" x2="472.5" y2="885" />
    <line x1="472.5" y1="885" x2="0" y2="600" />
    <line x1="0" y1="600" x2="70" y2="450" />
    <line x1="70" y1="450" x2="42.5" y2="0" />

    <!-- ===== INNER LINES ===== -->
    <line x1="70" y1="450" x2="402.5" y2="239.75"/>
    <line x1="220" y1="118.5" x2="472.5" y2="885"/>
    <line x1="472.5" y1="885" x2="725" y2="118.5"/>
    <line x1="542.5" y1="239.75" x2="875" y2="450"/>
    <line x1="70" y1="450" x2="220" y2="118.5"/>
    <line x1="875" y1="450" x2="725" y2="118.5"/>
    <line x1="0" y1="600" x2="433" y2="763"/>
    <line x1="512" y1="763" x2="945" y2="600"/>
    <line x1="70" y1="450" x2="433" y2="763"/>
    <line x1="512" y1="763" x2="875" y2="450"/>
    <line x1="433" y1="763" x2="512" y2="763"/>

  </g>
</svg>
